# xmcd CD database file
#
# Track frame offsets:
#	150
#	23314
#	37578
#	64875
#	71531
#	104563
#	119982
#	145059
#	173281
#	189771
#	211144
#	217506
#	239097
#	255316
#	305676
#
# Disc length: 4091 seconds
#
# Revision: 2
# Processed by: cddbd v1.5.2PL0 Copyright (c) Steve Scherf et al.
# Submitted via: CDex 1.51
#
DISCID=c30ff90f
DTITLE=Hazmat Modine - Bahamut
DYEAR=2006
DGENRE=Blues
TTITLE0=Yesterday Morning
TTITLE1=It Calls Me
TTITLE2=Bahamut
TTITLE3=Fred Of Ballaray
TTITLE4=Broke My Baby's Heart
TTITLE5=Almost Gone
TTITLE6=Steady Roll
TTITLE7=Everybody Loves You
TTITLE8=Lost Fox Train
TTITLE9=Dry Spell
TTITLE10=Ugly Rug
TTITLE11=Who Walks In When I Walk Out
TTITLE12=Grade - A Gray Day
TTITLE13=Man Trouble
TTITLE14=Additional
EXTD=YEAR: 2006
EXTT0=
EXTT1=
EXTT2=
EXTT3=
EXTT4=
EXTT5=
EXTT6=
EXTT7=
EXTT8=
EXTT9=
EXTT10=
EXTT11=
EXTT12=
EXTT13=
EXTT14=
PLAYORDER=
